<svg width="214" height="44" viewBox="0 0 214 44" fill="none" xmlns="http://www.w3.org/2000/svg">
<path d="M0 22C0 1 0 1 21 1C42 1 42 1 42 22C42 43 42 43 21 43C0 43 0 43 0 22Z" fill="url(#paint0_linear_3742_6149)"/>
<path d="M29.6296 21.1129V22.9013C29.6296 26.1328 28.7157 28.6494 26.8883 30.4504C25.0735 32.2387 22.438 33.1266 18.981 33.1266H13.14C14.676 32.4643 15.4441 31.0337 15.4441 28.835V25.4973C15.4441 24.5834 15.6428 23.9341 16.0405 23.5241C16.4513 23.1264 16.928 22.8878 17.4971 22.7954V21.2066C16.928 21.1133 16.4513 20.8756 16.0405 20.4779C15.6428 20.0671 15.4441 19.4186 15.4441 18.5047V15.1661C15.4441 12.9679 14.676 11.5373 13.14 10.875H18.9805C22.4775 10.875 25.1264 11.7625 26.9274 13.5374C28.7296 15.298 29.6296 17.8281 29.6296 21.1129Z" fill="#FFFDFD"/>
<path d="M63.6348 18H60.5391L60.5586 15.7148H63.6348C64.403 15.7148 65.0508 15.5423 65.5781 15.1973C66.1055 14.8457 66.5026 14.3346 66.7695 13.6641C67.043 12.9935 67.1797 12.1829 67.1797 11.2324V10.5391C67.1797 9.8099 67.1016 9.16862 66.9453 8.61523C66.7956 8.06185 66.571 7.59635 66.2715 7.21875C65.972 6.84115 65.6042 6.55794 65.168 6.36914C64.7318 6.17383 64.2305 6.07617 63.6641 6.07617H60.4805V3.78125H63.6641C64.6146 3.78125 65.4837 3.94401 66.2715 4.26953C67.0658 4.58854 67.7526 5.04753 68.332 5.64648C68.9115 6.24544 69.3574 6.96159 69.6699 7.79492C69.9889 8.62174 70.1484 9.54297 70.1484 10.5586V11.2324C70.1484 12.2415 69.9889 13.1628 69.6699 13.9961C69.3574 14.8294 68.9115 15.5456 68.332 16.1445C67.7591 16.737 67.0723 17.196 66.2715 17.5215C65.4772 17.8405 64.5983 18 63.6348 18ZM62.1992 3.78125V18H59.2695V3.78125H62.1992ZM71.8023 12.8242V12.6191C71.8023 11.8444 71.913 11.1315 72.1344 10.4805C72.3557 9.82292 72.678 9.25326 73.1012 8.77148C73.5243 8.28971 74.0452 7.91536 74.6637 7.64844C75.2822 7.375 75.9918 7.23828 76.7926 7.23828C77.5934 7.23828 78.3062 7.375 78.9312 7.64844C79.5562 7.91536 80.0803 8.28971 80.5035 8.77148C80.9332 9.25326 81.2587 9.82292 81.4801 10.4805C81.7014 11.1315 81.8121 11.8444 81.8121 12.6191V12.8242C81.8121 13.5924 81.7014 14.3053 81.4801 14.9629C81.2587 15.6139 80.9332 16.1836 80.5035 16.6719C80.0803 17.1536 79.5595 17.528 78.941 17.7949C78.3225 18.0618 77.6129 18.1953 76.8121 18.1953C76.0113 18.1953 75.2984 18.0618 74.6734 17.7949C74.0549 17.528 73.5309 17.1536 73.1012 16.6719C72.678 16.1836 72.3557 15.6139 72.1344 14.9629C71.913 14.3053 71.8023 13.5924 71.8023 12.8242ZM74.6148 12.6191V12.8242C74.6148 13.2669 74.6539 13.6803 74.732 14.0645C74.8102 14.4486 74.9339 14.7871 75.1031 15.0801C75.2789 15.3665 75.5068 15.5911 75.7867 15.7539C76.0667 15.9167 76.4085 15.998 76.8121 15.998C77.2027 15.998 77.538 15.9167 77.818 15.7539C78.0979 15.5911 78.3225 15.3665 78.4918 15.0801C78.6611 14.7871 78.7848 14.4486 78.8629 14.0645C78.9475 13.6803 78.9898 13.2669 78.9898 12.8242V12.6191C78.9898 12.1895 78.9475 11.7858 78.8629 11.4082C78.7848 11.0241 78.6578 10.6855 78.482 10.3926C78.3128 10.0931 78.0882 9.85872 77.8082 9.68945C77.5283 9.52018 77.1897 9.43555 76.7926 9.43555C76.3954 9.43555 76.0569 9.52018 75.777 9.68945C75.5035 9.85872 75.2789 10.0931 75.1031 10.3926C74.9339 10.6855 74.8102 11.0241 74.732 11.4082C74.6539 11.7858 74.6148 12.1895 74.6148 12.6191ZM86.6594 3V18H83.8371V3H86.6594ZM91.9461 9.46484V22.0625H89.1336V7.43359H91.741L91.9461 9.46484ZM98.6355 12.5996V12.8047C98.6355 13.5729 98.5444 14.2858 98.3621 14.9434C98.1863 15.6009 97.9259 16.1738 97.5809 16.6621C97.2358 17.1439 96.8061 17.5215 96.2918 17.7949C95.784 18.0618 95.198 18.1953 94.534 18.1953C93.8895 18.1953 93.3296 18.0651 92.8543 17.8047C92.379 17.5443 91.9786 17.1797 91.6531 16.7109C91.3341 16.2357 91.077 15.6855 90.8816 15.0605C90.6863 14.4355 90.5366 13.765 90.4324 13.0488V12.5117C90.5366 11.7435 90.6863 11.0404 90.8816 10.4023C91.077 9.75781 91.3341 9.20117 91.6531 8.73242C91.9786 8.25716 92.3758 7.88932 92.8445 7.62891C93.3198 7.36849 93.8764 7.23828 94.5145 7.23828C95.185 7.23828 95.7742 7.36523 96.282 7.61914C96.7964 7.87305 97.226 8.23763 97.5711 8.71289C97.9227 9.18815 98.1863 9.75456 98.3621 10.4121C98.5444 11.0697 98.6355 11.7988 98.6355 12.5996ZM95.8133 12.8047V12.5996C95.8133 12.1504 95.7742 11.737 95.6961 11.3594C95.6245 10.9753 95.5073 10.64 95.3445 10.3535C95.1883 10.0671 94.9799 9.8457 94.7195 9.68945C94.4656 9.52669 94.1564 9.44531 93.7918 9.44531C93.4077 9.44531 93.0789 9.50716 92.8055 9.63086C92.5385 9.75456 92.3204 9.93359 92.1512 10.168C91.9819 10.4023 91.8549 10.6823 91.7703 11.0078C91.6857 11.3333 91.6336 11.7012 91.6141 12.1113V13.4688C91.6466 13.9505 91.7378 14.3835 91.8875 14.7676C92.0372 15.1452 92.2684 15.4447 92.5809 15.666C92.8934 15.8874 93.3035 15.998 93.8113 15.998C94.1824 15.998 94.4949 15.9167 94.7488 15.7539C95.0027 15.5846 95.2078 15.3535 95.3641 15.0605C95.5268 14.7676 95.6408 14.429 95.7059 14.0449C95.7775 13.6608 95.8133 13.2474 95.8133 12.8047ZM103.278 3V18H100.465V3H103.278ZM102.877 12.3457H102.106C102.112 11.61 102.21 10.9329 102.399 10.3145C102.588 9.68945 102.858 9.14909 103.209 8.69336C103.561 8.23112 103.981 7.87305 104.469 7.61914C104.964 7.36523 105.511 7.23828 106.11 7.23828C106.631 7.23828 107.103 7.31315 107.526 7.46289C107.955 7.60612 108.323 7.84049 108.629 8.16602C108.942 8.48503 109.183 8.90495 109.352 9.42578C109.521 9.94661 109.606 10.5781 109.606 11.3203V18H106.774V11.3008C106.774 10.832 106.705 10.4642 106.569 10.1973C106.439 9.92383 106.246 9.73177 105.993 9.62109C105.745 9.50391 105.439 9.44531 105.075 9.44531C104.671 9.44531 104.326 9.52018 104.039 9.66992C103.76 9.81966 103.535 10.028 103.366 10.2949C103.196 10.5553 103.073 10.8613 102.995 11.2129C102.916 11.5645 102.877 11.9421 102.877 12.3457ZM114.863 7.43359V18H112.041V7.43359H114.863ZM111.865 4.67969C111.865 4.26953 112.008 3.93099 112.295 3.66406C112.581 3.39714 112.965 3.26367 113.447 3.26367C113.923 3.26367 114.303 3.39714 114.59 3.66406C114.883 3.93099 115.029 4.26953 115.029 4.67969C115.029 5.08984 114.883 5.42839 114.59 5.69531C114.303 5.96224 113.923 6.0957 113.447 6.0957C112.965 6.0957 112.581 5.96224 112.295 5.69531C112.008 5.42839 111.865 5.08984 111.865 4.67969ZM120.091 9.68945V18H117.279V7.43359H119.916L120.091 9.68945ZM119.681 12.3457H118.92C118.92 11.5645 119.02 10.8613 119.222 10.2363C119.424 9.60482 119.707 9.06771 120.072 8.625C120.436 8.17578 120.869 7.83398 121.371 7.59961C121.879 7.35872 122.445 7.23828 123.07 7.23828C123.565 7.23828 124.017 7.3099 124.427 7.45312C124.838 7.59635 125.189 7.82422 125.482 8.13672C125.782 8.44922 126.009 8.86263 126.166 9.37695C126.328 9.89128 126.41 10.5195 126.41 11.2617V18H123.578V11.252C123.578 10.7832 123.513 10.4186 123.382 10.1582C123.252 9.89779 123.06 9.71549 122.806 9.61133C122.559 9.50065 122.253 9.44531 121.888 9.44531C121.511 9.44531 121.182 9.52018 120.902 9.66992C120.629 9.81966 120.401 10.028 120.218 10.2949C120.043 10.5553 119.909 10.8613 119.818 11.2129C119.727 11.5645 119.681 11.9421 119.681 12.3457Z" fill="black" fill-opacity="0.87"/>
<path d="M133.318 2.4043L133.864 3.92773C133.272 4.14258 132.868 4.52344 132.654 5.07031C132.439 5.61068 132.331 6.23568 132.331 6.94531V8.9375C132.331 9.59505 132.185 10.1908 131.892 10.7246C131.605 11.2585 131.15 11.6849 130.525 12.0039C129.9 12.3164 129.083 12.4727 128.073 12.4727V10.9883C128.692 10.9883 129.135 10.8027 129.402 10.4316C129.675 10.0605 129.812 9.5625 129.812 8.9375V6.94531C129.812 6.26172 129.916 5.6237 130.124 5.03125C130.339 4.43229 130.7 3.9082 131.208 3.45898C131.723 3.00326 132.426 2.65169 133.318 2.4043ZM133.864 20.002L133.318 21.5352C132.426 21.2812 131.723 20.9264 131.208 20.4707C130.7 20.0215 130.339 19.4974 130.124 18.8984C129.916 18.306 129.812 17.668 129.812 16.9844V14.9922C129.812 14.5755 129.75 14.2142 129.626 13.9082C129.509 13.6022 129.323 13.3678 129.07 13.2051C128.816 13.0358 128.484 12.9512 128.073 12.9512V11.457C129.083 11.457 129.9 11.6165 130.525 11.9355C131.15 12.248 131.605 12.6712 131.892 13.2051C132.185 13.7389 132.331 14.3346 132.331 14.9922V16.9844C132.331 17.4596 132.377 17.8991 132.468 18.3027C132.566 18.7064 132.722 19.0547 132.937 19.3477C133.158 19.6406 133.467 19.8587 133.864 20.002ZM138.262 9.46484V22.0625H135.45V7.43359H138.057L138.262 9.46484ZM144.952 12.5996V12.8047C144.952 13.5729 144.861 14.2858 144.679 14.9434C144.503 15.6009 144.242 16.1738 143.897 16.6621C143.552 17.1439 143.123 17.5215 142.608 17.7949C142.1 18.0618 141.514 18.1953 140.85 18.1953C140.206 18.1953 139.646 18.0651 139.171 17.8047C138.695 17.5443 138.295 17.1797 137.97 16.7109C137.651 16.2357 137.393 15.6855 137.198 15.0605C137.003 14.4355 136.853 13.765 136.749 13.0488V12.5117C136.853 11.7435 137.003 11.0404 137.198 10.4023C137.393 9.75781 137.651 9.20117 137.97 8.73242C138.295 8.25716 138.692 7.88932 139.161 7.62891C139.636 7.36849 140.193 7.23828 140.831 7.23828C141.501 7.23828 142.091 7.36523 142.598 7.61914C143.113 7.87305 143.542 8.23763 143.887 8.71289C144.239 9.18815 144.503 9.75456 144.679 10.4121C144.861 11.0697 144.952 11.7988 144.952 12.5996ZM142.13 12.8047V12.5996C142.13 12.1504 142.091 11.737 142.012 11.3594C141.941 10.9753 141.824 10.64 141.661 10.3535C141.505 10.0671 141.296 9.8457 141.036 9.68945C140.782 9.52669 140.473 9.44531 140.108 9.44531C139.724 9.44531 139.395 9.50716 139.122 9.63086C138.855 9.75456 138.637 9.93359 138.468 10.168C138.298 10.4023 138.171 10.6823 138.087 11.0078C138.002 11.3333 137.95 11.7012 137.93 12.1113V13.4688C137.963 13.9505 138.054 14.3835 138.204 14.7676C138.354 15.1452 138.585 15.4447 138.897 15.666C139.21 15.8874 139.62 15.998 140.128 15.998C140.499 15.998 140.811 15.9167 141.065 15.7539C141.319 15.5846 141.524 15.3535 141.68 15.0605C141.843 14.7676 141.957 14.429 142.022 14.0449C142.094 13.6608 142.13 13.2474 142.13 12.8047ZM152.553 15.6172V10.9102C152.553 10.5716 152.498 10.2819 152.387 10.041C152.276 9.79362 152.104 9.60156 151.87 9.46484C151.642 9.32812 151.345 9.25977 150.981 9.25977C150.668 9.25977 150.398 9.3151 150.17 9.42578C149.942 9.52995 149.767 9.68294 149.643 9.88477C149.519 10.0801 149.457 10.3112 149.457 10.5781H146.645C146.645 10.1289 146.749 9.70247 146.957 9.29883C147.166 8.89518 147.468 8.54036 147.866 8.23438C148.263 7.92188 148.735 7.67773 149.282 7.50195C149.835 7.32617 150.454 7.23828 151.137 7.23828C151.957 7.23828 152.687 7.375 153.325 7.64844C153.963 7.92188 154.464 8.33203 154.829 8.87891C155.2 9.42578 155.385 10.1094 155.385 10.9297V15.4512C155.385 16.0306 155.421 16.5059 155.493 16.877C155.564 17.2415 155.668 17.5605 155.805 17.834V18H152.963C152.827 17.7135 152.722 17.3555 152.651 16.9258C152.586 16.4896 152.553 16.0534 152.553 15.6172ZM152.924 11.5645L152.944 13.1562H151.371C151 13.1562 150.678 13.1986 150.405 13.2832C150.131 13.3678 149.907 13.4883 149.731 13.6445C149.555 13.7943 149.425 13.9701 149.34 14.1719C149.262 14.3737 149.223 14.5951 149.223 14.8359C149.223 15.0768 149.278 15.2949 149.389 15.4902C149.5 15.679 149.659 15.8288 149.868 15.9395C150.076 16.0436 150.32 16.0957 150.6 16.0957C151.023 16.0957 151.391 16.0111 151.704 15.8418C152.016 15.6725 152.257 15.4642 152.426 15.2168C152.602 14.9694 152.693 14.735 152.7 14.5137L153.442 15.7051C153.338 15.972 153.194 16.2487 153.012 16.5352C152.836 16.8216 152.612 17.0918 152.338 17.3457C152.065 17.5931 151.736 17.7982 151.352 17.9609C150.968 18.1172 150.512 18.1953 149.985 18.1953C149.314 18.1953 148.705 18.0618 148.159 17.7949C147.618 17.5215 147.189 17.1471 146.87 16.6719C146.557 16.1901 146.401 15.6432 146.401 15.0312C146.401 14.4779 146.505 13.9863 146.713 13.5566C146.922 13.127 147.228 12.7656 147.631 12.4727C148.041 12.1732 148.552 11.9486 149.164 11.7988C149.776 11.6426 150.486 11.5645 151.293 11.5645H152.924ZM160.516 9.73828V18H157.703V7.43359H160.35L160.516 9.73828ZM163.699 7.36523L163.65 9.97266C163.514 9.95312 163.348 9.93685 163.152 9.92383C162.964 9.9043 162.791 9.89453 162.635 9.89453C162.238 9.89453 161.893 9.94661 161.6 10.0508C161.313 10.1484 161.072 10.2949 160.877 10.4902C160.688 10.6855 160.545 10.9232 160.447 11.2031C160.356 11.4831 160.304 11.8021 160.291 12.1602L159.725 11.9844C159.725 11.3008 159.793 10.6725 159.93 10.0996C160.066 9.52018 160.265 9.01562 160.525 8.58594C160.792 8.15625 161.118 7.82422 161.502 7.58984C161.886 7.35547 162.326 7.23828 162.82 7.23828C162.977 7.23828 163.136 7.2513 163.299 7.27734C163.462 7.29688 163.595 7.32617 163.699 7.36523ZM170.89 15.0801C170.89 14.8783 170.832 14.696 170.714 14.5332C170.597 14.3704 170.379 14.2207 170.06 14.084C169.748 13.9408 169.295 13.8105 168.703 13.6934C168.169 13.5762 167.671 13.4297 167.209 13.2539C166.753 13.0716 166.356 12.8535 166.017 12.5996C165.685 12.3457 165.425 12.0462 165.236 11.7012C165.047 11.3496 164.953 10.9492 164.953 10.5C164.953 10.0573 165.047 9.64062 165.236 9.25C165.431 8.85938 165.708 8.51432 166.066 8.21484C166.431 7.90885 166.873 7.67122 167.394 7.50195C167.921 7.32617 168.514 7.23828 169.171 7.23828C170.089 7.23828 170.877 7.38477 171.535 7.67773C172.199 7.9707 172.707 8.37435 173.058 8.88867C173.416 9.39648 173.595 9.97591 173.595 10.627H170.783C170.783 10.3535 170.724 10.1094 170.607 9.89453C170.496 9.67318 170.321 9.50065 170.08 9.37695C169.845 9.24674 169.539 9.18164 169.162 9.18164C168.849 9.18164 168.579 9.23698 168.351 9.34766C168.123 9.45182 167.948 9.59505 167.824 9.77734C167.707 9.95312 167.648 10.1484 167.648 10.3633C167.648 10.526 167.681 10.6725 167.746 10.8027C167.817 10.9264 167.931 11.0404 168.088 11.1445C168.244 11.2487 168.446 11.3464 168.693 11.4375C168.947 11.5221 169.259 11.6003 169.63 11.6719C170.392 11.8281 171.073 12.0332 171.671 12.2871C172.27 12.5345 172.746 12.873 173.097 13.3027C173.449 13.7259 173.625 14.2826 173.625 14.9727C173.625 15.4414 173.52 15.8711 173.312 16.2617C173.104 16.6523 172.804 16.9941 172.414 17.2871C172.023 17.5736 171.554 17.7982 171.007 17.9609C170.467 18.1172 169.858 18.1953 169.181 18.1953C168.198 18.1953 167.365 18.0195 166.681 17.668C166.004 17.3164 165.49 16.8704 165.138 16.3301C164.793 15.7832 164.621 15.2233 164.621 14.6504H167.287C167.3 15.0345 167.397 15.3438 167.58 15.5781C167.768 15.8125 168.006 15.9818 168.293 16.0859C168.586 16.1901 168.901 16.2422 169.24 16.2422C169.604 16.2422 169.907 16.1934 170.148 16.0957C170.389 15.9915 170.571 15.8548 170.695 15.6855C170.825 15.5098 170.89 15.3079 170.89 15.0801ZM180.464 18.1953C179.644 18.1953 178.908 18.0651 178.257 17.8047C177.606 17.5378 177.053 17.1699 176.597 16.7012C176.148 16.2324 175.803 15.6888 175.562 15.0703C175.321 14.4453 175.2 13.7812 175.2 13.0781V12.6875C175.2 11.8867 175.314 11.1543 175.542 10.4902C175.77 9.82617 176.096 9.25 176.519 8.76172C176.948 8.27344 177.469 7.89909 178.081 7.63867C178.693 7.37174 179.383 7.23828 180.152 7.23828C180.9 7.23828 181.564 7.36198 182.144 7.60938C182.723 7.85677 183.208 8.20833 183.599 8.66406C183.996 9.11979 184.295 9.66667 184.497 10.3047C184.699 10.9362 184.8 11.6393 184.8 12.4141V13.5859H176.402V11.7109H182.036V11.4961C182.036 11.1055 181.965 10.7572 181.821 10.4512C181.685 10.1387 181.476 9.89128 181.196 9.70898C180.917 9.52669 180.558 9.43555 180.122 9.43555C179.751 9.43555 179.432 9.51693 179.165 9.67969C178.898 9.84245 178.68 10.0703 178.511 10.3633C178.348 10.6562 178.224 11.0013 178.14 11.3984C178.062 11.7891 178.023 12.2188 178.023 12.6875V13.0781C178.023 13.5013 178.081 13.8919 178.198 14.25C178.322 14.6081 178.495 14.9173 178.716 15.1777C178.944 15.4382 179.217 15.64 179.536 15.7832C179.862 15.9264 180.23 15.998 180.64 15.998C181.148 15.998 181.62 15.9004 182.056 15.7051C182.499 15.5033 182.879 15.2005 183.198 14.7969L184.566 16.2812C184.344 16.6003 184.042 16.9062 183.657 17.1992C183.28 17.4922 182.824 17.7331 182.29 17.9219C181.756 18.1042 181.148 18.1953 180.464 18.1953ZM189.364 9.73828V18H186.552V7.43359H189.198L189.364 9.73828ZM192.548 7.36523L192.499 9.97266C192.362 9.95312 192.196 9.93685 192.001 9.92383C191.812 9.9043 191.639 9.89453 191.483 9.89453C191.086 9.89453 190.741 9.94661 190.448 10.0508C190.162 10.1484 189.921 10.2949 189.725 10.4902C189.537 10.6855 189.393 10.9232 189.296 11.2031C189.205 11.4831 189.152 11.8021 189.139 12.1602L188.573 11.9844C188.573 11.3008 188.641 10.6725 188.778 10.0996C188.915 9.52018 189.113 9.01562 189.374 8.58594C189.641 8.15625 189.966 7.82422 190.35 7.58984C190.735 7.35547 191.174 7.23828 191.669 7.23828C191.825 7.23828 191.985 7.2513 192.147 7.27734C192.31 7.29688 192.443 7.32617 192.548 7.36523ZM193.264 3.92773L193.811 2.4043C194.709 2.65169 195.413 3.00326 195.92 3.45898C196.428 3.9082 196.786 4.43229 196.995 5.03125C197.209 5.6237 197.317 6.26172 197.317 6.94531V8.9375C197.317 9.35417 197.375 9.71549 197.493 10.0215C197.61 10.3275 197.795 10.5651 198.049 10.7344C198.31 10.9036 198.645 10.9883 199.055 10.9883V12.4336C198.046 12.4336 197.229 12.2806 196.604 11.9746C195.979 11.6686 195.52 11.252 195.227 10.7246C194.934 10.1908 194.788 9.59505 194.788 8.9375V6.94531C194.788 6.47005 194.742 6.0306 194.651 5.62695C194.566 5.22331 194.413 4.875 194.192 4.58203C193.97 4.28906 193.661 4.07096 193.264 3.92773ZM193.811 21.5352L193.264 20.002C193.661 19.8587 193.97 19.6406 194.192 19.3477C194.413 19.0547 194.566 18.7064 194.651 18.3027C194.742 17.8991 194.788 17.4596 194.788 16.9844V14.9922C194.788 14.3346 194.934 13.7422 195.227 13.2148C195.52 12.6875 195.979 12.2708 196.604 11.9648C197.229 11.6523 198.046 11.4961 199.055 11.4961V12.9512C198.443 12.9512 198 13.1367 197.727 13.5078C197.454 13.8789 197.317 14.3737 197.317 14.9922V16.9844C197.317 17.668 197.209 18.306 196.995 18.8984C196.786 19.4974 196.428 20.0215 195.92 20.4707C195.413 20.9264 194.709 21.2812 193.811 21.5352Z" fill="black" fill-opacity="0.7"/>
<path d="M62.2383 37.6982L64.8701 31.0469H66.3877L62.8672 39.3389C62.7669 39.5713 62.6553 39.7969 62.5322 40.0156C62.4092 40.2298 62.2588 40.4212 62.0811 40.5898C61.9033 40.7585 61.6823 40.8929 61.418 40.9932C61.1582 41.0934 60.8346 41.1436 60.4473 41.1436C60.3379 41.1436 60.208 41.1367 60.0576 41.123C59.9072 41.1139 59.8092 41.1025 59.7637 41.0889L59.8047 40.0361C59.8548 40.0452 59.9528 40.0544 60.0986 40.0635C60.2445 40.068 60.3516 40.0703 60.4199 40.0703C60.6797 40.0703 60.8848 40.0179 61.0352 39.9131C61.1855 39.8083 61.3063 39.6761 61.3975 39.5166C61.4932 39.3525 61.5798 39.1862 61.6572 39.0176L62.2383 37.6982ZM60.0029 31.0469L62.7715 37.2471L63.0996 38.4707L61.9922 38.5527L58.5264 31.0469H60.0029ZM71.5732 39.3184L74.0889 33.6035H75.3057L72.0107 41H71.1357L67.8545 33.6035H69.0713L71.5732 39.3184ZM68.7021 33.6035V41H67.4375V33.6035H68.7021ZM74.4033 41V33.6035H75.6748V41H74.4033ZM82.9795 36.8096V37.835H79.0693V36.8096H82.9795ZM79.3359 33.6035V41H78.0713V33.6035H79.3359ZM84.0049 33.6035V41H82.7334V33.6035H84.0049ZM87.3311 36.1465H89.5527C90.1497 36.1465 90.6533 36.2513 91.0635 36.4609C91.4736 36.666 91.7835 36.9508 91.9932 37.3154C92.2074 37.6755 92.3145 38.0856 92.3145 38.5459C92.3145 38.8877 92.2552 39.209 92.1367 39.5098C92.0182 39.806 91.8405 40.0658 91.6035 40.2891C91.3711 40.5124 91.0817 40.6878 90.7354 40.8154C90.3936 40.9385 89.9993 41 89.5527 41H86.4082V33.6035H87.6729V39.9609H89.5527C89.9173 39.9609 90.209 39.8949 90.4277 39.7627C90.6465 39.6305 90.8037 39.4596 90.8994 39.25C90.9951 39.0404 91.043 38.8216 91.043 38.5938C91.043 38.3704 90.9951 38.1517 90.8994 37.9375C90.8037 37.7233 90.6465 37.5456 90.4277 37.4043C90.209 37.2585 89.9173 37.1855 89.5527 37.1855H87.3311V36.1465ZM94.9463 33.6035V41H93.6816V33.6035H94.9463ZM98.7783 38.9971L102.189 33.6035H103.461V41H102.189V35.6064L98.7783 41H97.5205V33.6035H98.7783V38.9971ZM101.499 30.9238H102.524C102.524 31.2793 102.442 31.596 102.278 31.874C102.114 32.1475 101.88 32.3617 101.574 32.5166C101.269 32.6715 100.907 32.749 100.487 32.749C99.8538 32.749 99.3525 32.5804 98.9834 32.2432C98.6188 31.9014 98.4365 31.4616 98.4365 30.9238H99.4619C99.4619 31.1927 99.5394 31.4297 99.6943 31.6348C99.8493 31.8398 100.114 31.9424 100.487 31.9424C100.852 31.9424 101.112 31.8398 101.267 31.6348C101.422 31.4297 101.499 31.1927 101.499 30.9238ZM110.831 38.9971L114.242 33.6035H115.514V41H114.242V35.6064L110.831 41H109.573V33.6035H110.831V38.9971ZM122.046 39.3184L124.562 33.6035H125.778L122.483 41H121.608L118.327 33.6035H119.544L122.046 39.3184ZM119.175 33.6035V41H117.91V33.6035H119.175ZM124.876 41V33.6035H126.147V41H124.876ZM133.363 33.6035V34.6494H129.624V33.6035H133.363ZM129.809 33.6035V41H128.544V33.6035H129.809ZM134.484 33.6035V41H133.213V33.6035H134.484ZM136.43 37.3838V37.2266C136.43 36.6934 136.507 36.1989 136.662 35.7432C136.817 35.2829 137.04 34.8841 137.332 34.5469C137.624 34.2051 137.977 33.9408 138.392 33.7539C138.806 33.5625 139.271 33.4668 139.786 33.4668C140.306 33.4668 140.773 33.5625 141.188 33.7539C141.607 33.9408 141.962 34.2051 142.254 34.5469C142.55 34.8841 142.776 35.2829 142.931 35.7432C143.086 36.1989 143.163 36.6934 143.163 37.2266V37.3838C143.163 37.917 143.086 38.4115 142.931 38.8672C142.776 39.3229 142.55 39.7217 142.254 40.0635C141.962 40.4007 141.609 40.665 141.194 40.8564C140.784 41.0433 140.319 41.1367 139.8 41.1367C139.28 41.1367 138.813 41.0433 138.398 40.8564C137.984 40.665 137.628 40.4007 137.332 40.0635C137.04 39.7217 136.817 39.3229 136.662 38.8672C136.507 38.4115 136.43 37.917 136.43 37.3838ZM137.694 37.2266V37.3838C137.694 37.7529 137.738 38.1016 137.824 38.4297C137.911 38.7533 138.041 39.0404 138.214 39.291C138.392 39.5417 138.613 39.7399 138.877 39.8857C139.141 40.027 139.449 40.0977 139.8 40.0977C140.146 40.0977 140.449 40.027 140.709 39.8857C140.973 39.7399 141.192 39.5417 141.365 39.291C141.538 39.0404 141.668 38.7533 141.755 38.4297C141.846 38.1016 141.892 37.7529 141.892 37.3838V37.2266C141.892 36.862 141.846 36.5179 141.755 36.1943C141.668 35.8662 141.536 35.5768 141.358 35.3262C141.185 35.071 140.966 34.8704 140.702 34.7246C140.442 34.5788 140.137 34.5059 139.786 34.5059C139.44 34.5059 139.134 34.5788 138.87 34.7246C138.61 34.8704 138.392 35.071 138.214 35.3262C138.041 35.5768 137.911 35.8662 137.824 36.1943C137.738 36.5179 137.694 36.862 137.694 37.2266ZM146.264 35.0254V43.8438H144.992V33.6035H146.154L146.264 35.0254ZM151.247 37.2402V37.3838C151.247 37.9215 151.183 38.4206 151.056 38.8809C150.928 39.3366 150.741 39.7331 150.495 40.0703C150.254 40.4076 149.955 40.6696 149.6 40.8564C149.244 41.0433 148.836 41.1367 148.376 41.1367C147.907 41.1367 147.492 41.0592 147.132 40.9043C146.772 40.7493 146.466 40.5238 146.216 40.2275C145.965 39.9313 145.765 39.5758 145.614 39.1611C145.468 38.7464 145.368 38.2793 145.313 37.7598V36.9941C145.368 36.4473 145.471 35.9574 145.621 35.5244C145.771 35.0915 145.97 34.7223 146.216 34.417C146.466 34.1071 146.77 33.8724 147.125 33.7129C147.48 33.5488 147.891 33.4668 148.355 33.4668C148.82 33.4668 149.233 33.5579 149.593 33.7402C149.953 33.918 150.256 34.1732 150.502 34.5059C150.748 34.8385 150.933 35.2373 151.056 35.7021C151.183 36.1624 151.247 36.6751 151.247 37.2402ZM149.976 37.3838V37.2402C149.976 36.8711 149.937 36.5247 149.859 36.2012C149.782 35.873 149.661 35.5859 149.497 35.3398C149.338 35.0892 149.132 34.8932 148.882 34.752C148.631 34.6061 148.333 34.5332 147.986 34.5332C147.667 34.5332 147.389 34.5879 147.152 34.6973C146.92 34.8066 146.722 34.9548 146.558 35.1416C146.394 35.3239 146.259 35.5335 146.154 35.7705C146.054 36.0029 145.979 36.2445 145.929 36.4951V38.2656C146.02 38.5846 146.147 38.8854 146.312 39.168C146.476 39.446 146.694 39.6715 146.968 39.8447C147.241 40.0133 147.585 40.0977 148 40.0977C148.342 40.0977 148.636 40.027 148.882 39.8857C149.132 39.7399 149.338 39.5417 149.497 39.291C149.661 39.0404 149.782 38.7533 149.859 38.4297C149.937 38.1016 149.976 37.7529 149.976 37.3838ZM155.578 33.6035V41H154.307V33.6035H155.578ZM158.06 33.6035V34.6289H151.873V33.6035H158.06ZM164.609 33.6035H165.874L165.765 36.3721C165.737 37.0739 165.658 37.68 165.525 38.1904C165.393 38.7008 165.225 39.1361 165.02 39.4961C164.814 39.8516 164.584 40.1501 164.329 40.3916C164.078 40.6331 163.819 40.8359 163.55 41H162.921L162.955 39.9678L163.215 39.9609C163.365 39.7832 163.511 39.6009 163.652 39.4141C163.794 39.2227 163.924 38.9971 164.042 38.7373C164.16 38.473 164.258 38.1517 164.336 37.7734C164.418 37.3906 164.47 36.9235 164.493 36.3721L164.609 33.6035ZM164.924 33.6035H169.374V41H168.109V34.7725H164.924V33.6035ZM162.634 39.9609H170.324V43.1807H169.06V41H163.898V43.1807H162.627L162.634 39.9609ZM176.337 39.7354V35.9277C176.337 35.6361 176.278 35.3831 176.159 35.1689C176.045 34.9502 175.872 34.7816 175.64 34.6631C175.407 34.5446 175.12 34.4854 174.778 34.4854C174.459 34.4854 174.179 34.54 173.938 34.6494C173.701 34.7588 173.514 34.9023 173.377 35.0801C173.245 35.2578 173.179 35.4492 173.179 35.6543H171.914C171.914 35.39 171.982 35.1279 172.119 34.8682C172.256 34.6084 172.452 34.3737 172.707 34.1641C172.967 33.9499 173.277 33.7812 173.637 33.6582C174.001 33.5306 174.407 33.4668 174.854 33.4668C175.391 33.4668 175.865 33.5579 176.275 33.7402C176.69 33.9225 177.014 34.1982 177.246 34.5674C177.483 34.932 177.602 35.39 177.602 35.9414V39.3867C177.602 39.6328 177.622 39.8949 177.663 40.1729C177.709 40.4508 177.775 40.6901 177.861 40.8906V41H176.542C176.478 40.8542 176.428 40.6605 176.392 40.4189C176.355 40.1729 176.337 39.945 176.337 39.7354ZM176.556 36.5156L176.569 37.4043H175.291C174.931 37.4043 174.61 37.4339 174.327 37.4932C174.045 37.5479 173.808 37.6322 173.616 37.7461C173.425 37.86 173.279 38.0036 173.179 38.1768C173.078 38.3454 173.028 38.5436 173.028 38.7715C173.028 39.0039 173.081 39.2158 173.186 39.4072C173.29 39.5986 173.448 39.7513 173.657 39.8652C173.871 39.9746 174.133 40.0293 174.443 40.0293C174.831 40.0293 175.173 39.9473 175.469 39.7832C175.765 39.6191 176 39.4186 176.173 39.1816C176.351 38.9447 176.446 38.7145 176.46 38.4912L177 39.0996C176.968 39.291 176.882 39.5029 176.74 39.7354C176.599 39.9678 176.41 40.1911 176.173 40.4053C175.94 40.6149 175.662 40.7904 175.339 40.9316C175.02 41.0684 174.66 41.1367 174.259 41.1367C173.757 41.1367 173.318 41.0387 172.939 40.8428C172.566 40.6468 172.274 40.3848 172.064 40.0566C171.859 39.724 171.757 39.3525 171.757 38.9424C171.757 38.5459 171.834 38.1973 171.989 37.8965C172.144 37.5911 172.368 37.3382 172.659 37.1377C172.951 36.9326 173.302 36.7777 173.712 36.6729C174.122 36.568 174.58 36.5156 175.086 36.5156H176.556ZM184.858 36.8096V37.835H180.948V36.8096H184.858ZM181.215 33.6035V41H179.95V33.6035H181.215ZM185.884 33.6035V41H184.612V33.6035H185.884ZM193.188 36.8096V37.835H189.278V36.8096H193.188ZM189.545 33.6035V41H188.28V33.6035H189.545ZM194.214 33.6035V41H192.942V33.6035H194.214ZM197.54 36.1465H199.762C200.359 36.1465 200.862 36.2513 201.272 36.4609C201.683 36.666 201.993 36.9508 202.202 37.3154C202.416 37.6755 202.523 38.0856 202.523 38.5459C202.523 38.8877 202.464 39.209 202.346 39.5098C202.227 39.806 202.049 40.0658 201.812 40.2891C201.58 40.5124 201.291 40.6878 200.944 40.8154C200.603 40.9385 200.208 41 199.762 41H196.617V33.6035H197.882V39.9609H199.762C200.126 39.9609 200.418 39.8949 200.637 39.7627C200.855 39.6305 201.013 39.4596 201.108 39.25C201.204 39.0404 201.252 38.8216 201.252 38.5938C201.252 38.3704 201.204 38.1517 201.108 37.9375C201.013 37.7233 200.855 37.5456 200.637 37.4043C200.418 37.2585 200.126 37.1855 199.762 37.1855H197.54V36.1465ZM205.155 33.6035V41H203.891V33.6035H205.155ZM208.475 33.6035L210.095 36.2969L211.735 33.6035H213.219L210.799 37.2539L213.294 41H211.831L210.122 38.2246L208.413 41H206.943L209.432 37.2539L207.019 33.6035H208.475Z" fill="black" fill-opacity="0.7"/>
<defs>
<linearGradient id="paint0_linear_3742_6149" x1="42" y1="1" x2="1.06954e-06" y2="36.1346" gradientUnits="userSpaceOnUse">
<stop stop-color="#50E20C"/>
<stop offset="1" stop-color="#14B9ED"/>
</linearGradient>
</defs>
</svg>
